<?xml version="1.0" encoding="UTF-8"?><svg id="Ebene_2" xmlns="http://www.w3.org/2000/svg" viewBox="0 0 72.16 95.07"><defs><style>.cls-1{fill:#000;}.cls-1,.cls-2,.cls-3,.cls-4{stroke-width:0px;}.cls-2{fill:#ccc;}.cls-3{fill:#fff;}.cls-4{fill:#ffce00;}</style></defs><g id="Ebene_1-2"><polygon class="cls-4" points="36.29 41.98 3.79 64.69 36.54 91.32 68.79 64.69 36.29 41.98"/><polygon class="cls-2" points="36.29 4.31 3.79 29.31 36.54 59.81 68.79 29.31 36.29 4.31"/><polygon class="cls-3" points="36.29 40.57 25.02 49.24 36.38 59.81 47.56 49.24 36.29 40.57"/><path class="cls-1" d="M72.16,27.32L36.33,0,0,27.32v41.07l36.28,26.68,35.88-26.68V27.32ZM6.79,59.63v-22.48l13.6,12.42-13.6,10.06ZM8.62,29.34l24.17-17.98v28.72l-6.75,5.16-17.42-15.91ZM36.31,46.21l5.01,3.77-4.92,4.72-5.11-4.66,5.02-3.84ZM39.79,40.07V11.53l23,17.81-16.36,15.72-6.63-5ZM64.86,37.06v22.37l-12.77-10.1,12.77-12.27ZM9.73,66.54l15.91-12.17,10.88,9.93,10.46-10.05,16.3,12.29-26.97,20.12-26.58-20.12Z"/></g></svg>