<?xml version="1.0" encoding="UTF-8"?>
<svg id="Ebene_2" data-name="Ebene 2" xmlns="http://www.w3.org/2000/svg" version="1.1" viewBox="0 0 127.6 120.4">
  <defs>
    <style>
      .cls-1 {
        fill: #1d1d1b;
      }

      .cls-1, .cls-2, .cls-3 {
        stroke-width: 0px;
      }

      .cls-2 {
        fill: #010101;
      }

      .cls-3 {
        fill: #fff;
      }
    </style>
  </defs>
  <g id="Ebene_1-2" data-name="Ebene 1-2">
    <path class="cls-1" d="M31.3,45.7c0-5.3.1-14.2.3-19.3h-.4c-1,8.8-2.4,20.7-3.6,29.4h-11.1c-1.2-10.6-2.2-19.4-3.2-29.2h-.5c.2,4.6.5,12,.5,18.9v10.3H.4V16.1h20.5c.4,4.4,1.3,14.8,1.7,19.9h.5c1-7.7,1.2-12.9,2.3-19.9h20.2v39.8h-14.2v-10.2h0Z"/>
    <path class="cls-1" d="M60.8,26.2h-9.7v-10.1h34.1v10.1h-9.5v29.6h-14.8v-29.6Z"/>
    <path class="cls-1" d="M127.3,55.9h-10.1c-.2-.6-.6-2.2-.6-3.3-2.2,3.1-5.6,4.3-10.5,4.3-13.6,0-17.1-11.1-17.1-20.1s6.3-21.8,20-21.8,17.9,6.7,18.3,13.6h-14.6c-.4-1.9-.9-3.6-3.6-3.6s-4.5,3-4.5,11.3,1.2,10.7,4.5,10.7,3.8-2.4,3.8-5v-.5h-3.8v-8.8h18.2v23.3h0Z"/>
    <path class="cls-2" d="M4.5,107.1L0,63.2h10.9l.5,14.3c.2,5.3.6,12.6.7,18.9h.7c0-6.9.4-13.1.5-19l.3-14.2h10.6l-4.8,44H4.5Z"/>
    <path class="cls-2" d="M37.2,97.9l-.5,9.2h-10.7l4.7-44h16.7l4.6,44h-10.8l-.5-9.2h-3.4ZM40.1,89.2c-.2-3.4-1-14.8-1.2-17.2h-.5c0,1.9-.7,12.9-.9,17.2h2.6Z"/>
    <path class="cls-2" d="M67.2,63.2v33.9c0,1.6.4,2.4,1.4,2.4s1.5-.8,1.5-2.4v-33.9h10.8v32.6c0,9.3-4.4,11.9-12.4,11.9s-11.9-3.4-11.9-12.1v-32.4s10.6,0,10.6,0Z"/>
    <path class="cls-2" d="M87,63.2h10.5v35h9.8l-1.1,8.9h-19.3v-44h0Z"/>
    <path class="cls-2" d="M111.9,71.8h-5.2v-8.7h20.9v8.7h-5.2v35.3h-10.4v-35.3h0Z"/>
    <rect class="cls-3" x=".8" y="115" width="126" height="5.5"/>
    <rect class="cls-3" x=".8" width="126" height="5.5"/>
  </g>
</svg>