<?xml version="1.0" encoding="UTF-8"?><svg id="Ebene_2" xmlns="http://www.w3.org/2000/svg" viewBox="0 0 73.14 94.48"><defs><style>.cls-1{fill:#fff;}.cls-1,.cls-2{stroke-width:0px;}.cls-2{fill:#ffce00;}</style></defs><g id="Ebene_1-2"><path class="cls-2" d="M36.7,41.98L4.2,64.69l32.75,26.04,32.25-26.04-32.5-22.71ZM36.78,59.81l-10.08-9.38,10-7.69,10,7.69-9.92,9.38Z"/><path class="cls-1" d="M72,27.31L36.75,0,0,27.33l.82,41.09,35.87,26.07,36.46-26.11-1.15-41.06ZM7.65,59.63l-.45-22.48,13.6,12.42-13.15,10.06ZM9.03,29.34l24.17-17.98v28.72l-6.75,5.16-17.42-15.91ZM36.72,46.21l5.01,3.77-4.92,4.72-5.11-4.66,5.02-3.84ZM40.2,40.07V11.53l23,17.81-16.36,15.72-6.63-5ZM65.27,37.06l.62,22.37-13.39-10.1,12.77-12.27ZM10.14,66.54l15.91-12.17,10.88,9.93,10.46-10.05,16.3,12.29-26.97,19.32-26.58-19.32Z"/></g></svg>