<?xml version="1.0" encoding="UTF-8"?><svg id="Ebene_2" xmlns="http://www.w3.org/2000/svg" viewBox="0 0 114.14 90.42"><defs><style>.cls-1{fill:#161b27;}.cls-1,.cls-2{stroke-width:0px;}.cls-2{fill:#fff;}</style></defs><g id="Ebene_1-2"><path class="cls-1" d="M15.04,52.12c0-6.05,4.64-10.74,10.51-10.74s10.05,3.77,10.71,9.24h-5.76c-.43-2.59-2.36-4.38-4.9-4.38-3.05,0-4.98,2.36-4.98,5.87s1.93,5.93,4.98,5.93c2.5,0,4.43-1.79,4.9-4.41h5.76c-.69,5.53-5.04,9.27-10.71,9.27s-10.51-4.72-10.51-10.8Z"/><path class="cls-1" d="M57.82,54.26c0,5.01-3.14,8.67-8.96,8.67s-8.98-3.66-8.98-8.67v-12.44h5.44v12.53c0,2.16.78,3.71,3.54,3.71s3.51-1.56,3.51-3.71v-12.53h5.44v12.44Z"/><path class="cls-1" d="M71.21,62.49h-8.55v-20.67h8.29c4.52,0,7.34,1.99,7.34,5.59,0,1.81-.95,3.23-2.68,4.26,2.1.89,3.28,2.42,3.28,4.61,0,3.89-2.88,6.22-7.69,6.22ZM67.58,46.11v3.57h2.94c1.81,0,2.65-.69,2.65-1.81s-.83-1.76-2.65-1.76h-2.94ZM67.58,53.97v4.23h3.2c2.04,0,2.99-.81,2.99-2.13s-.95-2.1-2.99-2.1h-3.2Z"/><path class="cls-1" d="M97.09,62.49h-14.63v-20.67h14.43v4.72h-8.98v2.97h8.15v4.72h-8.15v3.54h9.19v4.72Z"/><path class="cls-1" d="M22.29,21.32v14.9h-6.15V10.38h8.02l6.51,17.52,6.48-17.52h8.02v25.83h-6.15v-15.08l-5.58,15.08h-5.61l-5.54-14.9Z"/><path class="cls-1" d="M57.23,36.21v-19.68h-7.92v-6.15h22.63v6.15h-7.92v19.68h-6.8Z"/><path class="cls-1" d="M73.14,23.15c0-7.63,5.61-13.31,13.2-13.31,6.48,0,11.26,3.74,13.06,9.53h-8.06c-.65-1.98-2.55-3.45-5.18-3.45-3.35,0-6.04,2.34-6.04,7.41,0,4.32,2.12,7.66,6.8,7.66,2.95,0,4.79-1.65,5.54-3.81h-6.22v-5.36h13.49c.54,8.53-4.61,14.93-13.17,14.93-7.52,0-13.42-5.54-13.42-13.6Z"/><rect class="cls-2" x="15.25" y="70.29" width="84.49" height="1.72"/><rect class="cls-2" x="15.21" width="84.49" height="1.72"/></g></svg>