<?xml version="1.0" encoding="UTF-8"?><svg id="Ebene_2" xmlns="http://www.w3.org/2000/svg" viewBox="0 0 25 49.09"><defs><style>.cls-1{stroke:#ffce00;}.cls-1,.cls-2,.cls-3,.cls-4,.cls-5{fill:none;stroke-miterlimit:10;}.cls-2{stroke:#161b27;}.cls-6{fill:#4a5056;}.cls-6,.cls-7,.cls-8,.cls-9,.cls-10{stroke-width:0px;}.cls-3{stroke:#fff;}.cls-4{stroke:#9da4b2;}.cls-7{fill:#ffce00;}.cls-8{fill:#161b27;}.cls-9{fill:#9da4b2;}.cls-5{stroke:#4a5056;}.cls-10{fill:#fff;}</style></defs><g id="Ebene_1-2"><line class="cls-3" x1="21.44" y1="4.54" y2="4.54"/><path class="cls-10" d="M21.04,4.54c-1.04,1.04-1.54,3.11-1.58,4.54,1.43-1.92,3.29-3.6,5.55-4.54-2.25-.9-4.03-2.68-5.55-4.54.12,1.54.5,3.4,1.58,4.54Z"/><line class="cls-1" x1="21.44" y1="14.54" y2="14.54"/><path class="cls-7" d="M21.04,14.54c-1.04,1.04-1.54,3.11-1.58,4.54,1.43-1.92,3.29-3.6,5.55-4.54-2.25-.9-4.03-2.68-5.55-4.54.12,1.54.5,3.4,1.58,4.54Z"/><line class="cls-2" x1="21.44" y1="24.54" y2="24.54"/><path class="cls-8" d="M21.04,24.54c-1.04,1.04-1.54,3.11-1.58,4.54,1.43-1.92,3.29-3.6,5.55-4.54-2.25-.9-4.03-2.68-5.55-4.54.12,1.54.5,3.4,1.58,4.54Z"/><line class="cls-5" x1="21.44" y1="34.54" y2="34.54"/><path class="cls-6" d="M21.04,34.54c-1.04,1.04-1.54,3.11-1.58,4.54,1.43-1.92,3.29-3.6,5.55-4.54-2.25-.9-4.03-2.68-5.55-4.54.12,1.54.5,3.4,1.58,4.54Z"/><line class="cls-4" x1="21.44" y1="44.54" y2="44.54"/><path class="cls-9" d="M21.04,44.54c-1.04,1.04-1.54,3.11-1.58,4.54,1.43-1.92,3.29-3.6,5.55-4.54-2.25-.9-4.03-2.68-5.55-4.54.12,1.54.5,3.4,1.58,4.54Z"/></g></svg>