<?xml version="1.0" encoding="UTF-8"?><svg id="Ebene_2" xmlns="http://www.w3.org/2000/svg" viewBox="0 0 35.65 46.97"><defs><style>.cls-1{fill:#000;}.cls-1,.cls-2,.cls-3,.cls-4{stroke-width:0px;}.cls-2{fill:#ccc;}.cls-3{fill:#fff;}.cls-4{fill:#ffce00;}</style></defs><g id="Ebene_1-2"><rect class="cls-3" x=".44" y="15.56" width="33.5" height="18.38"/><polygon class="cls-4" points="17.93 21.1 1.52 32.57 18.06 46.02 34.35 32.57 17.93 21.1"/><polygon class="cls-2" points="17.93 2.13 1.87 14.48 18.05 29.55 33.99 14.48 17.93 2.13"/><polygon class="cls-3" points="17.93 20.04 12.36 24.33 17.97 29.55 23.5 24.33 17.93 20.04"/><path class="cls-1" d="M35.65,13.5L17.95,0,0,13.5v20.29l17.92,13.18,17.73-13.18V13.5ZM3.35,29.46v-11.11l6.72,6.14-6.72,4.97ZM4.26,14.49l11.94-8.88v14.19l-3.34,2.55-8.61-7.86ZM17.94,22.83l2.47,1.86-2.43,2.33-2.52-2.3,2.48-1.9ZM19.66,19.8V5.7l11.36,8.8-8.08,7.77-3.28-2.47ZM32.04,18.31v11.05l-6.31-4.99,6.31-6.06ZM4.81,32.87l7.86-6.01,5.37,4.91,5.17-4.96,8.05,6.07-13.32,9.94-13.13-9.94Z"/></g></svg>