<?xml version="1.0" encoding="UTF-8"?><svg id="Ebene_2" xmlns="http://www.w3.org/2000/svg" viewBox="0 0 50 35.74"><defs><style>.cls-1{fill:#fff;stroke-width:0px;}</style></defs><g id="Ebene_1-2"><g id="_2Vqizt.tif"><path class="cls-1" d="M17.61,27.31c4.85-4.82,9.42-9.35,13.98-13.9,3.27-3.26,6.52-6.55,9.79-9.82.92-.93,1.8-1.91,2.81-2.74,1.54-1.26,3.74-1.09,4.92.26,1.25,1.43,1.19,3.6-.15,5.04-.12.13-.25.25-.38.38-9.21,9.21-18.43,18.43-27.64,27.64-2.08,2.08-4.13,2.09-6.21.01-4.43-4.43-8.85-8.86-13.29-13.28-.93-.92-1.54-1.98-1.43-3.32.11-1.43.83-2.5,2.16-3.01,1.53-.59,2.95-.21,4.1.94,3.62,3.63,7.22,7.28,10.81,10.94.23.23.35.56.53.86Z"/></g></g></svg>