<?xml version="1.0" encoding="UTF-8"?><svg id="Ebene_2" xmlns="http://www.w3.org/2000/svg" viewBox="0 0 50 44.52"><defs><style>.cls-1{fill:#fff;stroke-width:0px;}</style></defs><g id="Ebene_1-2"><g id="_5CqbOY.tif"><path class="cls-1" d="M5.54,25.02c-.91,0-1.74.01-2.57,0-1.99-.04-3.21-1.34-2.93-3.27.1-.65.53-1.37,1.02-1.81,3.65-3.25,7.36-6.44,11.05-9.66,3.39-2.95,6.78-5.91,10.17-8.87.24-.21.49-.43.74-.63,1.3-1.04,2.72-1.03,3.97.07,7.29,6.39,14.57,12.78,21.86,19.18,1.07.94,1.39,1.95.98,3.02-.47,1.23-1.53,1.97-2.9,1.99-.8.01-1.61,0-2.49,0,0,.35,0,.63,0,.9.03,3.59.07,7.19.07,10.78,0,1.44-.03,2.87-.09,4.31-.08,2.04-1.46,3.44-3.5,3.48-2.27.05-4.55,0-6.82.01-1.91,0-3.56-1.67-3.51-3.55.06-2.29.02-4.59,0-6.89,0-.35-.03-.69-.08-1.04-.21-1.47-1.17-2.39-2.65-2.43-1.9-.04-3.8-.04-5.7,0-1.6.03-2.66.96-2.73,2.56-.1,2.48-.05,4.96-.06,7.44,0,.85-.13,1.65-.63,2.37-.76,1.08-1.81,1.53-3.1,1.53-2.11,0-4.22-.05-6.33.01-2.09.06-3.83-1.6-3.79-3.79.08-4.92.02-9.83.02-14.75,0-.3,0-.59,0-.96Z"/></g></g></svg>