<?xml version="1.0" encoding="UTF-8"?><svg id="Ebene_2" xmlns="http://www.w3.org/2000/svg" viewBox="0 0 50 50"><defs><style>.cls-1{fill:#000;stroke-width:0px;}</style></defs><g id="Ebene_1-2"><path class="cls-1" d="M43.99,0H6.01C2.69,0,0,2.69,0,6.01v37.97c0,3.32,2.69,6.01,6.01,6.01h37.97c3.32,0,6.01-2.69,6.01-6.01V6.01c0-3.32-2.69-6.01-6.01-6.01ZM16.15,41.3c0,1.42-1.15,2.57-2.57,2.57h-6c-1.42,0-2.57-1.15-2.57-2.57v-11.23c0-1.42,1.15-2.57,2.57-2.57h6c1.42,0,2.57,1.15,2.57,2.57v11.23ZM16.15,19.93c0,1.42-1.15,2.57-2.57,2.57h-6c-1.42,0-2.57-1.15-2.57-2.57v-11.23c0-1.42,1.15-2.57,2.57-2.57h6c1.42,0,2.57,1.15,2.57,2.57v11.23ZM30.46,41.3c0,1.42-1.15,2.57-2.57,2.57h-6c-1.42,0-2.57-1.15-2.57-2.57v-11.23c0-1.42,1.15-2.57,2.57-2.57h6c1.42,0,2.57,1.15,2.57,2.57v11.23ZM30.46,19.93c0,1.42-1.15,2.57-2.57,2.57h-6c-1.42,0-2.57-1.15-2.57-2.57v-11.23c0-1.42,1.15-2.57,2.57-2.57h6c1.42,0,2.57,1.15,2.57,2.57v11.23ZM45,41.3c0,1.42-1.15,2.57-2.57,2.57h-6c-1.42,0-2.57-1.15-2.57-2.57v-11.23c0-1.42,1.15-2.57,2.57-2.57h6c1.42,0,2.57,1.15,2.57,2.57v11.23ZM45,19.93c0,1.42-1.15,2.57-2.57,2.57h-6c-1.42,0-2.57-1.15-2.57-2.57v-11.23c0-1.42,1.15-2.57,2.57-2.57h6c1.42,0,2.57,1.15,2.57,2.57v11.23Z"/></g></svg>