<?xml version="1.0" encoding="UTF-8"?><svg id="Ebene_2" xmlns="http://www.w3.org/2000/svg" viewBox="0 0 50 43.76"><defs><style>.cls-1{fill:#fff;stroke-width:0px;}</style></defs><g id="Ebene_1-2"><g id="ovzETZ.tif"><path class="cls-1" d="M25.03,43.74c-6.05,0-12.1,0-18.14,0-3.86,0-6.91-2.59-6.88-6.84C.08,26.94.09,16.98,0,7.02-.03,2.99,2.56.01,6.86,0,18.96,0,31.06,0,43.15.02c2.88,0,5.18,1.13,6.35,3.93.3.73.47,1.56.47,2.35.03,10.38.03,20.76.02,31.13,0,3.68-2.84,6.25-6.5,6.3-6.15.08-12.3.02-18.46.02ZM31.29,12.53c3.88,0,7.77-.01,11.65.01.64,0,.96-.13.94-.86-.04-1.56-.02-3.13,0-4.69,0-.57-.22-.77-.8-.77-7.87.01-15.75.01-23.62,0-.54,0-.74.16-.73.71.03,1.56.05,3.13,0,4.69-.03.74.21.92.92.92,3.88-.03,7.77-.01,11.65-.01ZM31.26,37.56c3.91,0,7.82,0,11.73,0,.62,0,.9-.15.89-.83-.04-1.56-.02-3.13,0-4.69,0-.54-.17-.8-.77-.8-7.9.01-15.8.01-23.7,0-.52,0-.68.18-.68.68.02,1.59.05,3.18,0,4.77-.02.71.22.87.89.87,3.88-.03,7.77-.01,11.65-.01ZM31.21,25.04c3.93,0,7.87-.01,11.8.01.65,0,.88-.22.87-.86-.03-1.54-.02-3.08,0-4.61,0-.62-.21-.88-.86-.88-7.82.02-15.63.02-23.45,0-.67,0-.84.26-.83.88.03,1.51.05,3.02,0,4.53-.03.72.18.95.91.94,3.86-.03,7.71-.02,11.57-.02ZM9.34,12.53c.83,0,1.67-.02,2.5,0,.48.01.72-.12.71-.65-.02-1.67-.01-3.33,0-5,0-.45-.15-.66-.64-.66-1.67.02-3.33.02-5,0-.48,0-.73.15-.72.67.01,1.67.01,3.33,0,5,0,.48.2.65.66.64.83-.01,1.67,0,2.5,0ZM9.4,31.26c-.81,0-1.62.02-2.42,0-.56-.02-.81.16-.8.75.02,1.61.02,3.23,0,4.85,0,.49.15.72.66.71,1.69-.02,3.39-.02,5.08,0,.49,0,.63-.21.62-.66-.01-1.64-.02-3.28,0-4.92,0-.52-.17-.76-.73-.73-.81.04-1.61,0-2.42,0ZM9.37,25.04c.81,0,1.61-.02,2.42,0,.53.02.76-.16.75-.71-.02-1.64-.02-3.28,0-4.92,0-.55-.24-.72-.76-.71-1.61.02-3.23.02-4.84,0-.52,0-.77.18-.76.72.01,1.64.02,3.28,0,4.92,0,.5.2.7.69.69.83-.02,1.67,0,2.5,0Z"/></g></g></svg>