<?xml version="1.0" encoding="UTF-8"?><svg id="Ebene_2" xmlns="http://www.w3.org/2000/svg" viewBox="0 0 50 49.62"><defs><style>.cls-1{fill:#fff;stroke-width:0px;}</style></defs><g id="Ebene_1-2"><g id="ojH6HK.tif"><path class="cls-1" d="M50,24.81c0,3.74,0,7.48,0,11.21,0,3.25-1.24,4.97-4.3,6.13-6.06,2.3-12.12,4.61-18.16,6.96-1.63.63-3.2.7-4.86.06-6.24-2.42-12.5-4.78-18.75-7.16C1.12,40.94.03,38.96.02,36.21c-.03-7.55-.03-15.11.01-22.66,0-.92.21-1.86.48-2.75.52-1.69,1.88-2.6,3.43-3.19C10.44,5.14,16.95,2.69,23.46.26c1.28-.48,2.56-.25,3.81.23,6.23,2.37,12.47,4.72,18.7,7.07,2.72,1.03,4.01,2.89,4.02,5.79,0,3.82,0,7.63,0,11.45ZM27.35,44.06c.36-.09.59-.11.8-.19,5.35-2.03,10.69-4.09,16.06-6.08.89-.33,1.22-.8,1.21-1.72-.02-6.32,0-12.64-.02-18.96,0-.29-.07-.58-.11-.89-5.72,2.22-11.34,4.42-16.98,6.58-.74.28-1.04.64-1.04,1.47.04,6.24.02,12.49.02,18.73,0,.31.03.61.05,1.06ZM4.72,16.24c-.05.42-.11.72-.11,1.02,0,6.3,0,12.6-.02,18.9,0,.86.32,1.32,1.14,1.62,4.86,1.81,9.69,3.67,14.54,5.5.76.29,1.53.55,2.37.85.03-.4.06-.63.06-.86,0-6.38,0-12.76.01-19.13,0-.72-.29-1.04-.94-1.29-4.28-1.63-8.55-3.31-12.82-4.97-1.37-.53-2.75-1.06-4.24-1.63ZM43.51,11.9c0-.07-.01-.14-.02-.21-.19-.08-.37-.17-.56-.25-5.71-2.19-11.42-4.4-17.14-6.55-.48-.18-1.15-.15-1.64.03-4.46,1.66-8.91,3.38-13.36,5.09-1.43.55-2.85,1.11-4.48,1.74.47.24.75.41,1.05.53,5.67,2.22,11.35,4.44,17.03,6.62.37.14.89.13,1.26-.01,5.27-2.02,10.54-4.08,15.8-6.13.69-.27,1.37-.57,2.06-.85Z"/></g></g></svg>