<?xml version="1.0" encoding="UTF-8"?><svg id="Ebene_2" xmlns="http://www.w3.org/2000/svg" viewBox="0 0 43.8 50"><defs><style>.cls-1{fill:#fff;stroke-width:0px;}</style></defs><g id="Ebene_1-2"><g id="fTLwby.tif"><path class="cls-1" d="M0,28.08c0-5.06,0-10.13,0-15.19,0-3.23,1.59-5.52,4.71-6.37,1.3-.36,2.74-.25,4.11-.3,1.38-.04,1.38,0,1.38-1.42,0-.84,0-1.67,0-2.51.01-1.33.94-2.21,2.29-2.29,1.21-.07,2.24,1.04,2.27,2.33.02.99.04,1.98,0,2.97-.02.65.16.92.88.92,4.18-.03,8.35-.03,12.53,0,.67,0,.86-.26.84-.88-.03-1.02-.02-2.04,0-3.05.04-1.32.93-2.23,2.2-2.3,1.16-.07,2.24.89,2.34,2.18.08,1.04.08,2.09.02,3.13-.04.75.23.9.93.92,1.61.05,3.27-.02,4.8.39,2.74.72,4.27,2.92,4.45,5.77.01.18.02.37.02.55,0,10.13.01,20.25,0,30.38,0,4.05-2.7,6.68-6.77,6.68-10.07,0-20.15,0-30.22,0-4.13,0-6.77-2.59-6.79-6.73-.02-5.06,0-10.13,0-15.19ZM21.87,18.71c-5.43,0-10.85.01-16.28-.01-.72,0-1.01.15-1.01.94.03,7.88.01,15.76.02,23.64,0,1.58.54,2.09,2.13,2.09,10.1,0,20.19,0,30.29,0,.26,0,.57.08.77-.03.42-.24.9-.51,1.14-.9.23-.37.24-.9.24-1.36.01-7.8,0-15.6.02-23.4,0-.74-.2-.99-.97-.98-5.45.03-10.9.02-16.36.02Z"/></g></g></svg>