<?xml version="1.0" encoding="UTF-8"?><svg id="Ebene_2" xmlns="http://www.w3.org/2000/svg" viewBox="0 0 43.57 50"><defs><style>.cls-1{fill:#000;stroke-width:0px;}</style></defs><g id="Ebene_1-2"><g id="IrAWzQ.tif"><path class="cls-1" d="M21.85,50c-6.2,0-12.41,0-18.61,0-2.12,0-3.32-1.25-3.24-3.38.29-7.47,4.97-13.8,12.08-16,1.98-.61,4.15-.77,6.24-.84,3.04-.11,6.1,0,9.14.11,7.58.29,14.3,6.06,15.73,13.52.26,1.37.46,2.8.34,4.17-.13,1.56-1.36,2.42-2.93,2.42-6.25,0-12.51,0-18.76,0Z"/><path class="cls-1" d="M34.27,12.51c.05,6.69-5.32,12.42-12.47,12.43-6.85.01-12.4-5.56-12.44-12.35C9.32,5.72,14.98,0,21.82,0c6.83,0,12.45,5.65,12.44,12.51Z"/></g></g></svg>