<?xml version="1.0" encoding="UTF-8"?><svg id="Ebene_2" xmlns="http://www.w3.org/2000/svg" viewBox="0 0 38.69 50"><defs><style>.cls-1{fill:#000;stroke-width:0px;}</style></defs><g id="Ebene_1-2"><rect class="cls-1" x="10.54" y="11.23" width="17.21" height="28.28" rx="8.6" ry="8.6"/><path class="cls-1" d="M15.23,3.91C15.28,1.74,17.08-.05,19.17,0c2.18.05,3.92,1.87,3.89,4.02-.03,2.21-1.91,3.85-3.95,3.85-2.15,0-3.93-1.84-3.89-3.97Z"/><path class="cls-1" d="M0,15.58c.05-2.17,1.85-3.96,3.94-3.91,2.18.05,3.92,1.87,3.89,4.02-.03,2.21-1.91,3.85-3.95,3.85C1.73,19.55-.05,17.7,0,15.58Z"/><path class="cls-1" d="M0,25.86c.05-2.17,1.85-3.96,3.94-3.91,2.18.05,3.92,1.87,3.89,4.02-.03,2.21-1.91,3.85-3.95,3.85C1.73,29.84-.05,27.99,0,25.86Z"/><path class="cls-1" d="M0,36.15c.05-2.17,1.85-3.96,3.94-3.91,2.18.05,3.92,1.87,3.89,4.02-.03,2.21-1.91,3.85-3.95,3.85-2.15,0-3.93-1.84-3.89-3.97Z"/><path class="cls-1" d="M30.85,15.58c.05-2.17,1.85-3.96,3.94-3.91,2.18.05,3.92,1.87,3.89,4.02-.03,2.21-1.91,3.85-3.95,3.85-2.15,0-3.93-1.84-3.89-3.97Z"/><path class="cls-1" d="M30.85,25.86c.05-2.17,1.85-3.96,3.94-3.91,2.18.05,3.92,1.87,3.89,4.02-.03,2.21-1.91,3.85-3.95,3.85-2.15,0-3.93-1.84-3.89-3.97Z"/><path class="cls-1" d="M30.85,36.15c.05-2.17,1.85-3.96,3.94-3.91,2.18.05,3.92,1.87,3.89,4.02-.03,2.21-1.91,3.85-3.95,3.85-2.15,0-3.93-1.84-3.89-3.97Z"/><path class="cls-1" d="M15.23,46.03c.05-2.17,1.85-3.96,3.94-3.91,2.18.05,3.92,1.87,3.89,4.02-.03,2.21-1.91,3.85-3.95,3.85-2.15,0-3.93-1.84-3.89-3.97Z"/></g></svg>