<?xml version="1.0" encoding="UTF-8"?><svg id="Ebene_2" xmlns="http://www.w3.org/2000/svg" viewBox="0 0 42.33 50"><defs><style>.cls-1{fill:#000;stroke-width:0px;}</style></defs><g id="Ebene_1-2"><path class="cls-1" d="M37.14,12.5h-1.85v-1.32c0-3.73-3.03-6.77-6.77-6.77h-3.08c-.38-2.49-2.51-4.41-5.11-4.41H5.19C2.32,0,0,2.32,0,5.19v27.12c0,2.87,2.32,5.19,5.19,5.19h1.43v.8c0,3.73,3.03,6.77,6.77,6.77h3.45c.13,2.75,2.38,4.94,5.16,4.94h15.15c2.87,0,5.19-2.32,5.19-5.19v-27.12c0-2.87-2.32-5.19-5.19-5.19ZM9.77,38.3V11.18c0-1.99,1.62-3.61,3.61-3.61h15.15c1.99,0,3.61,1.62,3.61,3.61v1.32h-10.15c-2.87,0-5.19,2.32-5.19,5.19v24.22h-3.42c-1.99,0-3.61-1.62-3.61-3.61Z"/></g></svg>