<?xml version="1.0" encoding="UTF-8"?><svg id="Ebene_2" xmlns="http://www.w3.org/2000/svg" viewBox="0 0 49.98 50"><defs><style>.cls-1{fill:#000;stroke-width:0px;}</style></defs><g id="Ebene_1-2"><g id="IFy7A7.tif"><path class="cls-1" d="M38.21,29.93c-2.81,2.81-5.55,5.56-8.33,8.33-.15-.14-.36-.33-.56-.53C20.65,29.05,12,20.37,3.3,11.73c-1.2-1.2-1.95-2.5-2.2-4.18C.84,5.81.41,4.08.08,2.35-.25.65.61-.21,2.31.12c1.99.38,3.99.78,5.98,1.15,1.11.21,2.05.71,2.85,1.51,8.93,8.96,17.87,17.9,26.81,26.85.11.11.2.23.26.3Z"/><path class="cls-1" d="M9.51,32.36c1.59-1.71,3.15-3.39,4.64-4.99,2.88,2.87,5.64,5.62,8.52,8.49-1.61,1.5-3.26,3.05-4.98,4.67.71.76,1.27,1.36,1.84,1.96.97,1.04.96,1.65-.05,2.67-2.24,2.27-1.92,2.07-4.57.88-1.23-.56-2.48-1.08-3.7-1.67-.5-.24-.8-.21-1.2.2-1.56,1.58-3.16,3.11-4.75,4.66-1.09,1.06-1.72,1.05-2.79,0-.59-.59-1.19-1.17-1.77-1.77-.91-.94-.91-1.63,0-2.56,1.65-1.7,3.32-3.4,4.98-5.09.09-.09.17-.19.27-.31-.84-1.86-1.67-3.72-2.5-5.57-.46-1.03-.38-1.54.39-2.33.42-.43.84-.86,1.28-1.27.79-.73,1.38-.75,2.19-.04.7.62,1.37,1.27,2.23,2.08Z"/><path class="cls-1" d="M27.42,14.26c.07-.08.19-.22.32-.34,3.63-3.64,7.27-7.27,10.89-10.91.85-.85,1.77-1.5,2.99-1.72,2.13-.39,4.24-.84,6.36-1.25,1.3-.25,2.2.72,1.96,2.16-.19,1.16-.45,2.3-.68,3.45-.17.84-.38,1.68-.5,2.53-.2,1.32-.85,2.37-1.77,3.31-3.71,3.77-7.41,7.57-11.05,11.29-2.95-2.94-5.7-5.7-8.52-8.51Z"/><path class="cls-1" d="M46.93,32.84c-.14.43-.21.76-.34,1.06-.73,1.64-1.45,3.29-2.23,4.91-.27.57-.25.94.23,1.4,1.57,1.49,3.08,3.04,4.61,4.58,1.03,1.04,1.03,1.67,0,2.72-.51.52-1.03,1.03-1.55,1.55-1.25,1.25-1.83,1.25-3.06.02-1.53-1.53-3.08-3.05-4.59-4.59-.32-.33-.57-.38-1-.18-1.67.79-3.37,1.53-5.06,2.29-1.12.5-1.57.43-2.45-.44-.48-.48-.97-.95-1.4-1.47-.5-.6-.45-1.25.05-1.85.15-.18.32-.34.49-.51,3.89-3.89,7.78-7.78,11.68-11.67,1.21-1.21,1.71-1.2,2.92,0,.41.41.84.79,1.2,1.23.23.29.35.66.5.96Z"/></g></g></svg>