<?xml version="1.0" encoding="UTF-8"?><svg id="Ebene_2" xmlns="http://www.w3.org/2000/svg" viewBox="0 0 20.64 50"><defs><style>.cls-1{fill:#000;stroke-width:0px;}</style></defs><g id="Ebene_1-2"><g id="ADrq8O.tif"><path class="cls-1" d="M4.13,39.99c0-1.79-.01-3.59,0-5.38,0-.46-.11-.75-.56-.98C.86,32.25-.28,30.06.06,27.02c.2-1.8.27-3.62.56-5.41.48-2.96,3.28-5.6,6.29-5.83,2.14-.16,4.3-.18,6.44-.02,3.78.28,6.5,3.13,6.87,7.02.16,1.68.29,3.36.41,5.04.17,2.34-1.22,4.69-3.42,5.72-.53.25-.71.54-.71,1.12.02,3.35.02,6.7,0,10.05,0,2.17-.77,4-2.94,4.74-2.17.74-4.47.74-6.64-.04-1.89-.68-2.73-2.24-2.79-4.2-.05-1.74-.01-3.48-.01-5.22Z"/><path class="cls-1" d="M4.13,6.17C4.21,2.74,7.05-.08,10.35,0c3.44.08,6.18,2.95,6.14,6.34-.04,3.48-3.02,6.06-6.22,6.08-3.4.01-6.2-2.9-6.13-6.25Z"/></g></g></svg>