<?xml version="1.0" encoding="UTF-8"?><svg id="Ebene_2" xmlns="http://www.w3.org/2000/svg" viewBox="0 0 43.78 50"><defs><style>.cls-1{fill:#000;stroke-width:0px;}</style></defs><g id="Ebene_1-2"><g id="c3CVbg.tif"><path class="cls-1" d="M.06,18.77c.36,0,.64,0,.93,0,13.92,0,27.84,0,41.76-.02.78,0,1.03.19,1.03.99-.03,8.34-.01,16.69-.02,25.03,0,3.3-1.97,5.22-5.28,5.22-11.08,0-22.16,0-33.24,0-3.25,0-5.22-1.89-5.22-5.11C0,36.37,0,27.84,0,19.32c0-.15.03-.3.06-.54Z"/><path class="cls-1" d="M.11,15.61c0-1.89-.21-3.74.05-5.52.37-2.52,2.26-3.8,5.11-3.85,1.07-.02,2.14-.05,3.21.01.77.05.91-.26.91-.95,0-1.01.05-2.03.2-3.03C9.79.94,11.14-.05,12.54,0c1.51.06,2.68.98,2.86,2.37.13,1.03.17,2.07.18,3.11,0,.58.2.77.78.76,3.7-.02,7.4-.02,11.1,0,.56,0,.69-.2.7-.73.03-1.11.07-2.24.23-3.34C28.58.92,29.86,0,31.25,0c1.37,0,2.72.92,2.9,2.15.16,1.07.16,2.18.17,3.27,0,.6.19.83.81.83,1.46,0,2.92-.03,4.37.13,2.55.28,4.07,1.92,4.23,4.5.08,1.38.02,2.76.03,4.14,0,.43-.16.63-.6.59-.16-.01-.31,0-.47,0-13.89,0-27.79,0-41.68,0H.11Z"/></g></g></svg>