<?xml version="1.0" encoding="UTF-8"?><svg id="Ebene_2" xmlns="http://www.w3.org/2000/svg" viewBox="0 0 43.86 50"><defs><style>.cls-1{fill:#fff;stroke-width:0px;}</style></defs><g id="Ebene_1-2"><g id="_3Md8XM.tif"><path class="cls-1" d="M43.86,28.08c0,4.98,0,9.97,0,14.95,0,1.65-.3,3.2-1.37,4.54-1.3,1.63-3.01,2.4-5.04,2.41-10.33.02-20.65.03-30.98,0-3.64,0-6.2-2.5-6.44-6.12-.02-.26-.02-.52-.02-.78,0-10.05,0-20.09,0-30.14,0-3.27,1.53-5.51,4.67-6.4,1.3-.37,2.74-.27,4.12-.32,1.43-.05,1.43-.01,1.43-1.45,0-.81,0-1.62,0-2.43,0-1.45,1.04-2.29,2.33-2.34,1.23-.04,2.22,1.05,2.24,2.35.02,1.04.02,2.09,0,3.13,0,.54.2.73.74.73,4.26-.01,8.52-.01,12.78,0,.55,0,.74-.22.73-.74-.02-1.04-.02-2.09,0-3.13C29.11.98,30.02.04,31.3,0c1.18-.04,2.23.92,2.32,2.21.07,1.07.06,2.14.02,3.21-.02.62.18.82.8.81,1.2-.01,2.4.02,3.6.1,3.36.24,5.82,2.92,5.81,6.56,0,5.06,0,10.12,0,15.19ZM21.9,35.2c1.33,0,2.66-.02,4,.01.56.01.79-.1.77-.73-.05-1.64-.04-3.28,0-4.93.01-.51-.12-.68-.65-.68-2.72.02-5.43.02-8.15,0-.51,0-.68.17-.68.68.02,1.64.03,3.28,0,4.93,0,.55.17.73.72.72,1.33-.03,2.66,0,4-.01ZM21.93,45.36c1.39,0,2.77-.01,4.16,0,.44,0,.59-.14.58-.59-.03-1.43-.02-2.87,0-4.3,0-.5-.17-.71-.68-.71-2.69.01-5.38.01-8.08,0-.54,0-.73.23-.72.76.03,1.38.03,2.77,0,4.15-.01.58.22.7.74.69,1.33-.03,2.67,0,4,0ZM26.64,18.81c-.15-.05-.22-.09-.29-.09-2.87,0-5.75,0-8.62-.02-.41,0-.55.17-.54.56.01,1.46,0,2.92,0,4.38,0,.42.17.62.6.62,2.77,0,5.54,0,8.31-.02.18,0,.52-.26.52-.4.04-1.68.02-3.37.02-5.05ZM8.61,35.2c1.1,0,2.19-.02,3.29,0,.48.01.66-.17.65-.64-.01-1.67-.01-3.34,0-5.01,0-.5-.19-.69-.7-.68-2.17.02-4.34.02-6.5,0-.52,0-.76.17-.75.72.02,1.62.02,3.23,0,4.85,0,.59.23.77.8.75,1.07-.03,2.14,0,3.21,0ZM35.25,35.2c1.1,0,2.19-.02,3.29,0,.5.01.71-.16.71-.67-.01-1.67-.01-3.33,0-5,0-.46-.19-.65-.66-.65-2.22,0-4.43.01-6.65,0-.52,0-.68.23-.67.72.02,1.64.02,3.28,0,4.92,0,.5.2.69.7.68,1.09-.02,2.19,0,3.29,0ZM8.64,39.78c-1.1,0-2.19,0-3.29,0-.45,0-.76.11-.75.65.02,1.09-.03,2.19.02,3.28.05,1.03.61,1.63,1.52,1.64,1.93.03,3.86,0,5.79.02.44,0,.61-.18.61-.6,0-1.43-.01-2.86,0-4.29,0-.5-.21-.7-.7-.7-1.07.01-2.14,0-3.21,0ZM35.29,39.77c-1.04,0-2.09.02-3.13,0-.61-.01-.91.17-.89.85.04,1.33.03,2.66,0,3.99-.01.58.21.78.78.77,1.72-.03,3.45,0,5.17,0,1.47,0,1.97-.48,2.02-1.95.03-.96,0-1.93.01-2.89.01-.54-.23-.75-.75-.74-1.07.01-2.14,0-3.21,0ZM35.28,18.71c-1.07,0-2.14.02-3.21,0-.55-.01-.82.13-.8.74.03,1.35.03,2.71,0,4.07-.01.59.24.78.8.77,2.14-.02,4.28-.01,6.43,0,.52,0,.77-.18.76-.73-.02-1.38-.02-2.76,0-4.14,0-.56-.24-.72-.76-.7-1.07.03-2.14,0-3.21,0ZM8.57,18.71c-1.07,0-2.14.02-3.21,0-.51-.01-.77.13-.76.7.03,1.38.02,2.76,0,4.14,0,.54.22.74.75.74,2.17-.01,4.33-.01,6.5,0,.5,0,.71-.18.71-.69-.01-1.41-.02-2.81,0-4.22,0-.51-.19-.69-.7-.67-1.1.03-2.19,0-3.29,0Z"/></g></g></svg>