<?xml version="1.0" encoding="UTF-8"?><svg id="Ebene_2" xmlns="http://www.w3.org/2000/svg" viewBox="0 0 37.42 50"><defs><style>.cls-1{fill:#fff;stroke-width:0px;}</style></defs><g id="Ebene_1-2"><g id="IDNZ6z.tif"><path class="cls-1" d="M23.02,24.92c2.2,2.2,4.18,4.23,6.21,6.21,3.3,3.21,5.08,7.07,5.07,11.7,0,.69.18,1.02.9,1.18,1.56.34,2.38,1.62,2.2,3.27-.18,1.61-1.28,2.69-2.89,2.7-3.65.03-7.3.01-10.95.01-6.8,0-13.6-.01-20.41,0-1.32,0-2.28-.56-2.81-1.71-.51-1.11-.49-2.3.32-3.24.44-.51,1.17-.82,1.82-1.08.41-.17.64-.26.64-.77,0-4.75,1.7-8.77,5.14-12.07,1.88-1.8,3.68-3.69,5.55-5.5.47-.46.46-.73,0-1.19-2.19-2.16-4.38-4.31-6.5-6.54-2.89-3.03-4.15-6.74-4.2-10.87,0-.63-.2-.85-.82-.95-1.02-.15-1.77-.78-2.07-1.78C-.47,1.91.8.16,3.31,0c.16,0,.31,0,.47,0,9.98,0,19.96,0,29.95.01.61,0,1.25.1,1.84.29,1.26.39,1.95,1.63,1.84,3.1-.11,1.47-.97,2.49-2.34,2.68-.67.09-.76.47-.76,1.03.03,3.7-1.03,7.06-3.42,9.9-1.42,1.69-3.04,3.22-4.6,4.79-1.04,1.05-2.14,2.04-3.27,3.12ZM28.05,43.81c.3-2.21-.33-5.01-1.79-6.63-2.28-2.53-4.72-4.92-7.08-7.37-.38-.39-.65-.24-.97.08-1.82,1.83-3.6,3.69-5.48,5.46-2.14,2.02-3.26,4.46-3.43,7.38-.06.98.01,1.08.99,1.08,5.65,0,11.31,0,16.96,0h.81Z"/></g></g></svg>